# AST/ASF file generated using VICON BodyLanguage
# -----------------------------------------------
:version 1.10
:name VICON
:units
  mass 1.0
  length 0.45
  angle deg
:documentation
   .ast/.asf automatically generated from VICON data using
   VICON BodyBuilder and BodyLanguage model FoxedUp or BRILLIANT.MOD
:root
   order TX TY TZ RX RY RZ
   axis XYZ
   position 0 0 0  
   orientation 0 0 0 
:bonedata
  begin
     id 1 
     name lhipjoint
     direction 0.624716 -0.669793 0.401383 
     length 2.38238 
     axis 0 0 0  XYZ
  end
  begin
     id 2 
     name lfemur
     direction 0.34202 -0.939693 0  
     length 6.4574  
     axis 0 0 20  XYZ
    dof rx ry rz
    limits (-160.0 20.0)
           (-70.0 70.0)
           (-60.0 70.0)
  end
  begin
     id 3 
     name ltibia
     direction 0.34202 -0.939693 0   
     length 7.68739   
     axis 0 0 20   XYZ
    dof rx
    limits (-10.0 170.0)
  end
  begin
     id 4 
     name lfoot
     direction 0.0681309 -0.187188 0.979959   
     length 2.46615   
     axis -90 7.62852e-016 20   XYZ
    dof rx rz
    limits (-45.0 90.0)
           (-70.0 20.0)
  end
  begin
     id 5 
     name ltoes
     direction 1.53566e-011 -4.21819e-011 1   
     length 1.2376   
     axis -90 7.62852e-016 20   XYZ
    dof rx
    limits (-90.0 20.0)
  end
  begin
     id 6 
     name rhipjoint
     direction -0.644473 -0.655875 0.393043   
     length 2.43293  
     axis 0 0 0  XYZ 
  end
  begin
     id 7 
     name rfemur
     direction -0.34202 -0.939693 0   
     length 6.7025   
     axis 0 0 -20   XYZ
    dof rx ry rz
    limits (-160.0 20.0)
           (-70.0 70.0)
           (-70.0 60.0)
  end
  begin
     id 8 
     name rtibia
     direction -0.34202 -0.939693 0   
     length 7.80547   
     axis 0 0 -20   XYZ
    dof rx
    limits (-10.0 170.0)
 end
 begin
     id 9 
     name rfoot
     direction -0.0756734 -0.207911 0.975216   
     length 2.40315  
     axis -90 -7.62852e-016 -20   XYZ
    dof rx rz
    limits (-45.0 90.0)
           (-20.0 70.0)
  end
  begin
     id 10 
     name rtoes
     direction -1.5353e-011 -4.21879e-011 1   
     length 1.20477   
     axis -90 -7.62852e-016 -20   XYZ
    dof rx
    limits (-90.0 20.0)
  end
  begin
     id 11 
     name lowerback
     direction 0.0160353 0.987463 -0.157037   
     length 2.18572   
     axis 0 0 0   XYZ
    dof rx ry rz
    limits (-20.0 45.0)
           (-30.0 30.0)
           (-30.0 30.0)
  end
  begin
     id 12 
     name upperback
     direction -0.00499661 0.999756 0.0215076   
     length 2.18016   
     axis 0 0 0   XYZ
    dof rx ry rz
    limits (-20.0 45.0)
           (-30.0 30.0)
           (-30.0 30.0)
  end
  begin
     id 13 
     name thorax
     direction -0.00921346 0.995333 0.0960619   
     length 2.24923   
     axis 0 0 0   XYZ
    dof rx ry rz
    limits (-20.0 45.0)
           (-30.0 30.0)
           (-30.0 30.0)
  end
  begin
     id 14 
     name lowerneck
     direction 0.0274184 0.991181 0.12965   
     length 1.70911   
     axis 0 0 0   XYZ
    dof rx ry rz
    limits (-20.0 45.0)
           (-30.0 30.0)
           (-30.0 30.0)
  end
  begin
     id 15 
     name upperneck
     direction 0.0015627 0.999959 -0.00893559   
     length 1.69312   
     axis 0 0 0   XYZ
    dof rx ry rz
    limits (-20.0 45.0)
           (-30.0 30.0)
           (-30.0 30.0)
  end
  begin
     id 16
     name head
     direction -0.00230242 0.999856 -0.0168327  
     length 1.80241  
     axis 0 0 0   XYZ
    dof rx ry rz
    limits (-20.0 45.0)
           (-30.0 30.0)
           (-30.0 30.0)
  end
  begin
     id 17 
     name lclavicle
     direction 0.955523 0.290741 -0.0494489  
     length 3.84275  
     axis 0 0 0   XYZ
    dof ry rz
    limits (-20.0 10.0)
           (0.0 20.0)
  end
  begin
     id 18 
     name lhumerus
     direction 1 -4.48967e-011 -3.18382e-028   
     length 5.17714   
     axis 180 -30 -90   XYZ
    dof rx ry rz
    limits (-60.0 90.0)
           (-90.0 90.0)
           (-90.0 90.0)
  end
  begin
     id 19
     name lradius
     direction 1 -4.48968e-011 -2.22911e-027   
     length 3.43679   
     axis 180 -30 -90   XYZ
    dof rx
    limits (-10.0 170.0)
  end
  begin
     id 20
     name lwrist
     direction 1 -4.48951e-011 -6.32245e-027   
     length 1.7184   
     axis 3.57107e-015 90 90   XYZ
    dof ry
    limits (-180.0 0.0)
 end
  begin
     id 21 
     name lhand
     direction 1 -4.48924e-011 -1.26431e-026   
     length 0.573117   
     axis 8.06912e-015 90 90   XYZ
    dof rx rz
    limits (-90.0 90.0)
           (-45.0 45.0)
  end
  begin
     id 22 
     name lfingers
     direction 1 -4.49001e-011 -2.52965e-026   
     length 0.462062   
     axis 1.61381e-014 90 90   XYZ
    dof rx
    limits (0.0 90.0)
  end
  begin
     id 23
     name lthumb
     direction 0.707107 -6.35008e-011 0.707107   
     length 0.663431   
     axis -90 45 -1.62303e-014   XYZ
    dof rx rz
    limits (-45.0 45.0)
           (-45.0 45.0)
  end
  begin
     id 24 
     name rclavicle
     direction -0.963917 0.256881 -0.0698287   
     length 3.73057  
     axis 0 0 0   XYZ 
    dof ry rz
    limits (-10.0 20.0)
           (-20.0 0.0)
  end
  begin
     id 25 
     name rhumerus
     direction -1 -4.48962e-011 -2.73982e-027  
     length 5.23908   
     axis 180 30 90   XYZ
    dof rx ry rz
    limits (-90.0 60.0)
           (-90.0 90.0)
           (-90.0 90.0)
  end
  begin
     id 26 
     name rradius
     direction -1 -4.48968e-011 -4.33218e-027   
     length 3.46485   
     axis 180 30 90   XYZ
    dof rx
    limits (-10.0 170.0)
  end
  begin
     id 27 
     name rwrist
     direction -1 -4.48989e-011 -6.32372e-027   
     length 1.73243   
     axis 3.57107e-015 -90 -90   XYZ
    dof ry
    limits (-180.0 0.0)
  end
  begin
     id 28
     name rhand
     direction -1 -4.48948e-011 -1.26448e-026   
     length 0.608752   
     axis 8.06912e-015 -90 -90   XYZ
    dof rx rz
    limits (-90.0 90.0)
           (-45.0 45.0)
  end
  begin
     id 29
     name rfingers
     direction -1 -4.48962e-011 -2.52913e-026   
     length 0.490792   
     axis 1.61381e-014 -90 -90   XYZ
    dof rx
    limits (0.0 90.0)
  end
  begin
     id 30
     name rthumb
     direction -0.707107 -6.34878e-011 0.707107   
     length 0.704682   
     axis -90 -45 1.62303e-014   XYZ
    dof rx rz
    limits (-45.0 45.0)
           (-45.0 45.0)
  end
:hierarchy
  begin
    root lhipjoint rhipjoint lowerback
    lhipjoint lfemur
    lfemur ltibia
    ltibia lfoot
    lfoot ltoes
    rhipjoint rfemur
    rfemur rtibia
    rtibia rfoot
    rfoot rtoes
    lowerback upperback
    upperback thorax
    thorax lowerneck lclavicle rclavicle
    lowerneck upperneck
    upperneck head
    lclavicle lhumerus
    lhumerus lradius
    lradius lwrist
    lwrist lhand lthumb
    lhand lfingers
    rclavicle rhumerus
    rhumerus rradius
    rradius rwrist
    rwrist rhand rthumb
    rhand rfingers
  end

#!OML:ASF G:\JayActor3\Patient Classification 1\Patient 1\Session 6\male.ASF
:FULLY-SPECIFIED
:DEGREES
941
root 0.34318 14.5445 -2.65611 362.192 -81.9005 -347.235
lowerback 37.2011 0.36657 0.145404
upperback 18.6448 -1.8501 0.187485
thorax 2.07178 -1.79112 0.641154
lowerneck -0.229245 6.7895 2.39387
upperneck -14.0232 8.02204 -11.0362
head -3.54893 4.36628 -3.96644
rclavicle 4.96962e-015 1.83876e-015
rhumerus -20.4055 6.5778 -79.6402
rradius 67.0611
rwrist -10.1087
rhand -25.0121 -9.39864
rfingers 7.12502
rthumb 1.49985 -39.3731
lclavicle 4.96962e-015 1.83876e-015
lhumerus 42.8518 -8.12408 43.6276
lradius 86.2716
lwrist 17.6117
lhand -4.98939 14.6152
lfingers 7.12502
lthumb 20.8036 43.5199
rfemur -62.9541 -13.0037 25.3933
rtibia 76.1142
rfoot -30.4565 -20.5141
rtoes -4.38671
lfemur -61.3661 11.0129 -24.6955
ltibia 66.2946
lfoot -18.5341 0.412611
ltoes -0.683743
942
root 0.345082 14.5444 -2.65298 362.343 -81.8923 -347.386
lowerback 37.2215 0.388269 0.120604
upperback 18.6626 -1.83561 0.159468
thorax 2.08439 -1.785 0.620228
lowerneck -0.292074 6.78351 2.42868
upperneck -13.7924 8.01895 -11.1745
head -3.46084 4.36481 -4.0031
rclavicle -1.88845e-014 -2.03754e-014
rhumerus -20.3793 6.58923 -79.6577
rradius 67.0294
rwrist -10.1126
rhand -24.9892 -9.39311
rfingers 7.12502
rthumb 1.522 -39.3674
lclavicle -1.88845e-014 -2.03754e-014
lhumerus 43.0718 -8.21609 43.4624
lradius 86.3081
lwrist 17.605
lhand -4.92273 14.5515
lfingers 7.12502
lthumb 20.8676 43.4492
rfemur -62.9593 -13.0182 25.402
rtibia 76.1176
rfoot -30.4447 -20.5005
rtoes -4.40648
lfemur -61.3557 10.985 -24.6688
ltibia 66.2723
lfoot -18.5447 0.386093
ltoes -0.655654
943
root 0.346881 14.5445 -2.64977 362.561 -81.8848 -347.605
lowerback 37.2466 0.407338 0.102096
upperback 18.6769 -1.82203 0.131419
thorax 2.09152 -1.77875 0.59648
lowerneck -0.354964 6.77708 2.46165
upperneck -13.5687 8.01603 -11.3037
head -3.37548 4.36283 -4.03696
rclavicle -8.44835e-015 -1.73937e-015
rhumerus -20.351 6.61494 -79.6799
rradius 66.9881
rwrist -10.1077
rhand -24.9647 -9.3874
rfingers 7.12502
rthumb 1.54565 -39.3616
lclavicle -8.44835e-015 -1.73937e-015
lhumerus 43.2876 -8.30426 43.2888
lradius 86.3342
lwrist 17.6195
lhand -4.86891 14.4687
lfingers 7.12502
lthumb 20.9194 43.3607
rfemur -62.9616 -13.0297 25.4202
rtibia 76.1148
rfoot -30.4341 -20.4851
rtoes -4.41204
lfemur -61.3513 10.9679 -24.6382
ltibia 66.2529
lfoot -18.5495 0.350238
ltoes -0.606225
944
root 0.348636 14.5448 -2.64662 362.829 -81.8751 -347.869
lowerback 37.2747 0.424111 0.0879763
upperback 18.6867 -1.80921 0.103091
thorax 2.09277 -1.77226 0.570589
lowerneck -0.422049 6.77215 2.48416
upperneck -13.3448 8.01761 -11.4104
head -3.29076 4.36213 -4.06231
rclavicle -4.63168e-014 -7.70291e-015
rhumerus -20.3257 6.64904 -79.707
rradius 66.9451
rwrist -10.0959
rhand -24.9264 -9.38733
rfingers 7.12502
rthumb 1.58262 -39.3612
lclavicle -4.63168e-014 -7.70291e-015
lhumerus 43.5031 -8.39319 43.1025
lradius 86.3551
lwrist 17.65
lhand -4.81877 14.4046
lfingers 7.12502
lthumb 20.9675 43.2913
rfemur -62.9642 -13.0397 25.4462
rtibia 76.106
rfoot -30.4236 -20.4731
rtoes -4.41447
lfemur -61.3546 10.9576 -24.6068
ltibia 66.2357
lfoot -18.5478 0.306051
ltoes -0.528743
945
root 0.350424 14.5451 -2.64374 363.119 -81.8624 -348.152
lowerback 37.3023 0.440261 0.0720161
upperback 18.6934 -1.79702 0.0753609
thorax 2.09068 -1.76605 0.546567
lowerneck -0.496847 6.76913 2.49619
upperneck -13.1178 8.02427 -11.496
head -3.20512 4.36295 -4.07927
rclavicle -1.80894e-014 -6.26172e-015
rhumerus -20.3035 6.69707 -79.7368
rradius 66.9052
rwrist -10.0889
rhand -24.8812 -9.39847
rfingers 7.12502
rthumb 1.62632 -39.372
lclavicle -1.80894e-014 -6.26172e-015
lhumerus 43.7164 -8.48025 42.9078
lradius 86.3824
lwrist 17.6689
lhand -4.75927 14.3894
lfingers 7.12502
lthumb 21.0247 43.2698
rfemur -62.9708 -13.046 25.476
rtibia 76.0915
rfoot -30.4139 -20.4643
rtoes -4.40853
lfemur -61.3673 10.9531 -24.5781
ltibia 66.2192
lfoot -18.5399 0.253238
ltoes -0.421488
946
root 0.35154 14.5463 -2.64051 363.437 -81.866 -348.478
lowerback 37.346 0.462167 0.0574238
upperback 18.701 -1.77899 0.046323
thorax 2.08445 -1.75731 0.518988
lowerneck -0.571995 6.76712 2.4965
upperneck -12.8953 8.03408 -11.5601
head -3.12226 4.36477 -4.08809
rclavicle -8.34896e-015 2.09718e-014
rhumerus -20.2859 6.75209 -79.7681
rradius 66.8738
rwrist -10.0858
rhand -24.8194 -9.42831
rfingers 7.12502
rthumb 1.68596 -39.4014
lclavicle -8.34896e-015 2.09718e-014
lhumerus 43.9266 -8.56381 42.7103
lradius 86.4214
lwrist 17.6582
lhand -4.65751 14.436
lfingers 7.12502
lthumb 21.1224 43.3055
rfemur -62.9493 -13.0372 25.5064
rtibia 76.0631
rfoot -30.4006 -20.459
rtoes -4.40813
lfemur -61.3576 10.9721 -24.5442
ltibia 66.1991
lfoot -18.5351 0.19627
ltoes -0.293447
